<svg xmlns="http://www.w3.org/2000/svg" viewBox="0 0 163.97 93.31"><defs><style>.cls-1,.cls-2{font-size:80px;font-family:Roboto-Regular, Roboto;}.cls-1{fill:#ffd215;}.cls-10,.cls-2{fill:#3f5254;}.cls-3{fill:#776a1e;}.cls-4{fill:#e0ba19;}.cls-5{fill:#7c722a;}.cls-6{fill:#b59e3a;}.cls-7{fill:#262d30;}.cls-8{fill:#516c6d;}.cls-9{fill:#364247;}</style></defs><g id="Capa_1" data-name="Capa 1"><text class="cls-1" transform="translate(85.01 71.59) scale(0.43 1)">LMM</text><text class="cls-2" transform="translate(82.56 71.59) scale(0.43 1)">LMM</text></g><g id="Pajarita2"><polygon class="cls-3" points="7.54 22.84 52.46 13.24 48 22.84 33.21 31.1 7.54 22.84"/><polygon class="cls-4" points="82.88 3.08 56.65 0 48 22.84 82.88 3.08"/><polygon class="cls-5" points="34.6 51.43 15.35 93.31 65.3 54.82 34.6 51.43"/><polygon class="cls-6" points="0 49.27 65.3 54.82 70.01 10.39 0 49.27"/><polygon class="cls-7" points="9.98 22.84 54.91 13.24 50.44 22.84 35.65 31.1 9.98 22.84"/><polygon class="cls-8" points="85.33 3.08 59.09 0 50.44 22.84 85.33 3.08"/><polygon class="cls-9" points="37.05 51.43 17.79 93.31 67.74 54.82 37.05 51.43"/><polygon class="cls-10" points="2.44 49.27 67.74 54.82 72.45 10.39 2.44 49.27"/></g></svg>