<?xml version="1.0" encoding="UTF-8" standalone="no" ?>
<!DOCTYPE svg PUBLIC "-//W3C//DTD SVG 1.1//EN" "http://www.w3.org/Graphics/SVG/1.1/DTD/svg11.dtd">
<svg xmlns="http://www.w3.org/2000/svg" xmlns:xlink="http://www.w3.org/1999/xlink" version="1.1" width="500" height="500" viewBox="0 0 500 500" xml:space="preserve">
<desc>Created with Fabric.js 4.6.0</desc>
<defs>
</defs>
<g transform="matrix(5.08 0 0 5.08 187.72 129.21)" id="HHXHzmSimfuZLpeUmy2j5"  >
<path style="stroke: none; stroke-width: 1; stroke-dasharray: none; stroke-linecap: butt; stroke-dashoffset: 0; stroke-linejoin: miter; stroke-miterlimit: 4; fill: rgb(119,106,30); fill-rule: nonzero; opacity: 1;" vector-effect="non-scaling-stroke"  transform=" translate(-30, -22.17)" d="M 7.54 22.84 L 52.46 13.24 L 48 22.84 L 33.21 31.1 z" stroke-linecap="round" />
</g>
<g transform="matrix(5.08 0 0 5.08 367.6 74.65)" id="kgxP2q9bCXhLDgr4Tt2Oo"  >
<path style="stroke: none; stroke-width: 1; stroke-dasharray: none; stroke-linecap: butt; stroke-dashoffset: 0; stroke-linejoin: miter; stroke-miterlimit: 4; fill: rgb(224,186,25); fill-rule: nonzero; opacity: 1;" vector-effect="non-scaling-stroke"  transform=" translate(-65.44, -11.42)" d="M 82.88 3.08 L 56.64999999999999 0 L 47.99999999999999 22.84 z" stroke-linecap="round" />
</g>
<g transform="matrix(5.08 0 0 5.08 240.1 384.05)" id="8Yn9t2XOdKDTJzHemnMx-"  >
<path style="stroke: none; stroke-width: 1; stroke-dasharray: none; stroke-linecap: butt; stroke-dashoffset: 0; stroke-linejoin: miter; stroke-miterlimit: 4; fill: rgb(124,114,42); fill-rule: nonzero; opacity: 1;" vector-effect="non-scaling-stroke"  transform=" translate(-40.33, -72.37)" d="M 34.6 51.43 L 15.350000000000001 93.31 L 65.30000000000001 54.82 z" stroke-linecap="round" />
</g>
<g transform="matrix(5.08 0 0 5.08 213.1 182.2)" id="7ohhZUDAleZkjYn0zKw9k"  >
<path style="stroke: none; stroke-width: 1; stroke-dasharray: none; stroke-linecap: butt; stroke-dashoffset: 0; stroke-linejoin: miter; stroke-miterlimit: 4; fill: rgb(181,158,58); fill-rule: nonzero; opacity: 1;" vector-effect="non-scaling-stroke"  transform=" translate(-35, -32.61)" d="M 0 49.27 L 65.3 54.82 L 70.00999999999999 10.39 z" stroke-linecap="round" />
</g>
<g transform="matrix(5.08 0 0 5.08 200.11 129.21)" id="kosBZb5s2kA-A7bYkcVg-"  >
<path style="stroke: none; stroke-width: 1; stroke-dasharray: none; stroke-linecap: butt; stroke-dashoffset: 0; stroke-linejoin: miter; stroke-miterlimit: 4; fill: rgb(38,45,48); fill-rule: nonzero; opacity: 1;" vector-effect="non-scaling-stroke"  transform=" translate(-32.44, -22.17)" d="M 9.98 22.84 L 54.91 13.24 L 50.44 22.84 L 35.65 31.1 z" stroke-linecap="round" />
</g>
<g transform="matrix(5.08 0 0 5.08 379.99 74.65)" id="eD3ws76U0ZJy_CCgU7Bss"  >
<path style="stroke: none; stroke-width: 1; stroke-dasharray: none; stroke-linecap: butt; stroke-dashoffset: 0; stroke-linejoin: miter; stroke-miterlimit: 4; fill: rgb(81,108,109); fill-rule: nonzero; opacity: 1;" vector-effect="non-scaling-stroke"  transform=" translate(-67.89, -11.42)" d="M 85.33 3.08 L 59.09 0 L 50.440000000000005 22.84 z" stroke-linecap="round" />
</g>
<g transform="matrix(5.08 0 0 5.08 252.49 384.05)" id="rJ6xzUtCxmmLdI6Q5l509"  >
<path style="stroke: none; stroke-width: 1; stroke-dasharray: none; stroke-linecap: butt; stroke-dashoffset: 0; stroke-linejoin: miter; stroke-miterlimit: 4; fill: rgb(54,66,71); fill-rule: nonzero; opacity: 1;" vector-effect="non-scaling-stroke"  transform=" translate(-42.77, -72.37)" d="M 37.05 51.43 L 17.789999999999996 93.31 L 67.74 54.82 z" stroke-linecap="round" />
</g>
<g transform="matrix(5.08 0 0 5.08 225.49 182.2)" id="3U4RjVZ2ykvAXlJ1v76Xr"  >
<path style="stroke: none; stroke-width: 1; stroke-dasharray: none; stroke-linecap: butt; stroke-dashoffset: 0; stroke-linejoin: miter; stroke-miterlimit: 4; fill: rgb(63,82,84); fill-rule: nonzero; opacity: 1;" vector-effect="non-scaling-stroke"  transform=" translate(-37.44, -32.61)" d="M 2.44 49.27 L 67.74 54.82 L 72.44999999999999 10.39 z" stroke-linecap="round" />
</g>
</svg>