<svg xmlns="http://www.w3.org/2000/svg" viewBox="0 0 319.92 93.31"><defs><style>.cls-1,.cls-4{font-size:65.49px;font-family:Roboto-Regular, Roboto;}.cls-1{fill:#ffd215;}.cls-2{letter-spacing:-0.01em;}.cls-3{letter-spacing:0em;}.cls-13,.cls-4{fill:#3f5254;}.cls-5{letter-spacing:-0.01em;}.cls-6{fill:#776a1e;}.cls-7{fill:#e0ba19;}.cls-8{fill:#7c722a;}.cls-9{fill:#b59e3a;}.cls-10{fill:#262d30;}.cls-11{fill:#516c6d;}.cls-12{fill:#364247;}</style></defs><g id="Capa_1" data-name="Capa 1"><text class="cls-1" transform="translate(74.4 72.37) scale(0.42 1)">Lenguaje de Ma<tspan class="cls-2" x="461.75" y="0">r</tspan><tspan class="cls-3" x="483.3" y="0">cas</tspan></text><text class="cls-4" transform="translate(72.45 72.37) scale(0.42 1)">Lenguaje de Ma<tspan class="cls-5" x="461.75" y="0">r</tspan><tspan x="483.3" y="0">cas</tspan></text></g><g id="Pajarita2"><polygon class="cls-6" points="7.54 22.84 52.46 13.24 48 22.84 33.21 31.1 7.54 22.84"/><polygon class="cls-7" points="82.88 3.08 56.65 0 48 22.84 82.88 3.08"/><polygon class="cls-8" points="34.6 51.43 15.35 93.31 65.3 54.82 34.6 51.43"/><polygon class="cls-9" points="0 49.27 65.3 54.82 70.01 10.39 0 49.27"/><polygon class="cls-10" points="9.98 22.84 54.91 13.24 50.44 22.84 35.65 31.1 9.98 22.84"/><polygon class="cls-11" points="85.33 3.08 59.09 0 50.44 22.84 85.33 3.08"/><polygon class="cls-12" points="37.05 51.43 17.79 93.31 67.74 54.82 37.05 51.43"/><polygon class="cls-13" points="2.44 49.27 67.74 54.82 72.45 10.39 2.44 49.27"/></g></svg>