<?xml version="1.0" standalone="no"?>
<!DOCTYPE svg PUBLIC "-//W3C//DTD SVG 20010904//EN"
 "http://www.w3.org/TR/2001/REC-SVG-20010904/DTD/svg10.dtd">
<svg version="1.0" xmlns="http://www.w3.org/2000/svg"
 width="500.000000pt" height="500.000000pt" viewBox="0 0 500.000000 500.000000"
 preserveAspectRatio="xMidYMid meet">

<g transform="translate(0.000000,500.000000) scale(0.100000,-0.100000)"
fill="#000000" stroke="none">
<path d="M3139 3813 c-252 -249 -358 -361 -375 -395 -78 -154 -68 -344 26
-492 26 -40 29 -50 18 -64 -7 -8 -103 -101 -213 -205 -110 -105 -201 -198
-203 -208 -2 -9 4 -19 13 -22 16 -7 37 12 313 271 73 68 140 122 150 122 11 0
30 -8 43 -19 162 -126 431 -128 570 -3 192 171 665 626 667 643 9 53 -46 12
-280 -208 -336 -318 -345 -325 -366 -318 -28 8 -172 172 -172 195 0 12 109
118 298 290 163 150 301 281 306 292 11 22 -9 42 -30 30 -6 -4 -146 -130 -310
-279 -203 -186 -305 -273 -320 -273 -15 0 -43 23 -83 67 -34 37 -61 72 -61 78
0 5 135 144 300 307 165 164 300 304 300 312 0 49 -41 16 -326 -262 -178 -173
-304 -288 -318 -290 -16 -2 -38 14 -84 62 -34 35 -62 70 -62 78 0 7 133 146
296 309 214 214 295 301 291 313 -4 9 -13 16 -22 16 -8 0 -173 -156 -366 -347z
m-239 -353 c16 -8 240 -245 488 -513 34 -37 62 -76 62 -86 0 -49 -122 -101
-240 -101 -127 0 -238 49 -328 144 -94 99 -134 227 -112 353 14 82 42 148 77
186 31 31 28 30 53 17z"/>
<path d="M975 4035 c-14 -13 -25 -30 -25 -37 0 -7 18 -83 40 -168 143 -547
357 -1090 622 -1575 107 -195 109 -195 293 -55 73 55 136 100 142 100 12 0
-26 52 502 -695 249 -352 463 -650 476 -662 31 -27 92 -37 144 -23 80 21 147
128 125 200 -5 16 -144 206 -309 422 -165 216 -657 861 -1093 1433 -436 572
-805 1050 -818 1063 -33 29 -69 28 -99 -3z m1101 -1386 c538 -706 1021 -1338
1072 -1405 83 -109 92 -125 92 -163 0 -36 -6 -49 -34 -77 -29 -29 -41 -34 -82
-34 -27 0 -54 4 -60 8 -6 4 -137 185 -291 402 -153 217 -366 518 -471 667
-106 150 -200 279 -208 288 -35 34 -72 19 -209 -85 -72 -55 -137 -100 -143
-100 -32 0 -298 538 -434 880 -103 256 -217 606 -269 822 -23 97 -23 98 -3
114 19 15 18 15 -3 11 -14 -3 -23 0 -23 7 0 29 17 25 51 -12 19 -22 476 -618
1015 -1323z"/>
<path d="M1597 1957 c-39 -35 -196 -170 -347 -301 -407 -353 -403 -349 -402
-443 1 -121 59 -211 172 -268 44 -22 125 -23 167 -2 45 24 943 955 943 978 0
12 -7 19 -19 19 -12 0 -188 -175 -470 -468 -248 -258 -463 -474 -477 -480 -14
-7 -41 -12 -60 -12 -130 0 -248 186 -190 298 16 30 9 24 461 416 176 153 324
285 328 292 10 17 1 34 -19 34 -8 0 -47 -28 -87 -63z"/>
</g>
</svg>
